<?xml version="1.0" standalone="no"?>
<!DOCTYPE svg PUBLIC "-//W3C//DTD SVG 20010904//EN"
 "http://www.w3.org/TR/2001/REC-SVG-20010904/DTD/svg10.dtd">
<svg version="1.0" xmlns="http://www.w3.org/2000/svg"
 width="800.000000pt" height="243.000000pt" viewBox="0 0 800.000000 243.000000"
 preserveAspectRatio="xMidYMid meet">

<g transform="translate(0.000000,243.000000) scale(0.100000,-0.100000)"
fill="#000000" stroke="none">
<path d="M7070 2420 c0 -5 14 -10 30 -10 l30 0 0 -85 c0 -50 4 -85 10 -85 6 0
10 35 10 85 l0 85 30 0 c17 0 30 5 30 10 0 6 -30 10 -70 10 -40 0 -70 -4 -70
-10z"/>
<path d="M7240 2336 c0 -118 18 -129 22 -13 l3 82 24 -75 c14 -41 28 -79 33
-84 8 -10 41 60 53 112 11 53 21 36 21 -35 -1 -38 2 -69 7 -70 4 -2 7 -1 7 2
0 3 0 44 0 91 0 103 -12 106 -46 14 -14 -36 -27 -72 -30 -80 -4 -9 -17 17 -33
65 -18 52 -33 81 -44 83 -15 3 -17 -8 -17 -92z"/>
<path d="M4750 2309 c-156 -22 -302 -134 -379 -291 -80 -161 -87 -364 -18
-479 69 -113 172 -167 337 -176 237 -12 421 91 520 289 78 158 88 328 28 460
-52 112 -129 171 -255 193 -87 16 -138 17 -233 4z m177 -225 c48 -36 66 -70
71 -131 10 -138 -74 -319 -169 -369 -36 -18 -132 -18 -169 1 -66 34 -91 125
-66 243 40 191 128 288 254 279 32 -2 63 -11 79 -23z"/>
<path d="M736 2288 c-6 -18 -13 -51 -46 -208 -16 -74 -43 -200 -60 -280 -25
-117 -90 -423 -90 -425 0 0 63 0 140 0 133 0 141 1 145 20 2 11 18 88 35 170
17 83 33 158 36 168 5 15 24 17 214 17 l208 0 17 78 c9 42 19 85 21 95 5 17
-7 18 -201 17 -114 -1 -208 0 -210 2 -2 2 5 39 14 83 l17 80 216 3 215 2 18
83 c10 45 20 88 22 95 4 9 -70 12 -351 12 -277 0 -357 -3 -360 -12z"/>
<path d="M1610 2248 c-6 -29 -38 -179 -71 -333 -85 -395 -99 -465 -106 -505
l-5 -35 141 0 c132 0 140 1 145 20 3 11 41 191 86 400 44 209 87 408 94 443
l14 62 -143 0 -144 0 -11 -52z"/>
<path d="M2093 2193 c-12 -60 -43 -205 -68 -323 -25 -118 -59 -278 -75 -355
-17 -77 -30 -140 -30 -140 0 0 168 1 374 3 l374 2 16 73 c9 39 19 89 23 109
l6 38 -232 0 c-217 0 -232 1 -227 18 3 9 21 94 41 187 20 94 49 231 65 306 16
75 32 148 36 163 l6 26 -144 0 -144 0 -21 -107z"/>
<path d="M2981 2198 c-79 -365 -171 -800 -171 -813 0 -6 51 -10 140 -10 133 0
141 1 146 20 2 11 17 83 34 160 59 285 151 711 156 728 5 16 -6 17 -139 17
l-144 0 -22 -102z"/>
<path d="M3423 2208 l-19 -93 228 -3 c125 -1 228 -4 228 -7 0 -4 -277 -276
-463 -455 l-78 -75 -23 -98 c-13 -53 -22 -97 -20 -97 2 0 196 0 431 0 l428 0
17 77 c28 126 55 113 -232 113 -137 0 -250 3 -250 8 0 4 30 36 68 71 37 35
160 156 274 269 l207 205 11 71 c6 39 14 79 16 89 5 16 -19 17 -399 17 l-404
0 -20 -92z"/>
<path d="M5525 2278 c-3 -13 -19 -88 -35 -168 -17 -80 -47 -219 -66 -310 -59
-280 -84 -401 -84 -413 0 -9 89 -12 370 -12 321 0 371 2 374 15 3 8 12 51 21
95 9 44 19 88 22 98 4 16 -11 17 -226 17 -178 0 -231 3 -231 13 0 6 16 86 36
177 85 396 96 447 101 478 l6 32 -142 0 c-138 0 -141 0 -146 -22z"/>
<path d="M6626 2247 c-31 -54 -152 -270 -364 -642 -68 -121 -126 -222 -127
-225 -2 -3 66 -4 151 -2 l154 3 34 75 35 75 153 -3 153 -3 9 -72 9 -73 137 0
137 0 -8 53 c-9 59 -67 422 -105 657 -13 85 -27 167 -30 183 l-6 27 -151 0
-152 0 -29 -53z m160 -339 c7 -79 13 -153 14 -165 0 -22 -3 -23 -99 -23 l-100
0 70 148 c39 81 75 158 80 171 5 13 12 21 16 18 3 -4 12 -71 19 -149z"/>
<path d="M5430 1249 c-1341 -40 -2630 -271 -3136 -560 -96 -55 -187 -137 -224
-203 -17 -28 -30 -55 -30 -60 0 -5 21 11 48 36 202 189 700 359 1412 482 189
33 559 87 690 100 477 50 822 73 1275 85 425 10 344 10 745 0 769 -21 1366
-112 1668 -254 39 -19 72 -33 72 -31 0 5 -180 121 -255 164 -124 71 -250 131
-296 141 -123 28 -555 75 -834 91 -236 14 -826 18 -1135 9z"/>
<path d="M26 1158 c-22 -46 -27 -65 -21 -97 9 -57 52 -118 131 -189 164 -148
439 -285 944 -473 118 -44 242 -91 275 -104 33 -13 191 -74 350 -136 160 -61
312 -120 339 -131 55 -21 55 -23 -5 48 -14 17 -34 52 -45 77 -18 44 -23 48
-94 76 -269 105 -658 254 -730 279 -287 102 -576 229 -774 341 -178 101 -315
235 -334 328 l-8 38 -28 -57z"/>
<path d="M3700 725 c0 -2 14 -33 31 -69 27 -58 31 -74 25 -117 -6 -44 -5 -49
13 -49 14 0 21 10 26 38 7 41 19 63 76 138 22 28 39 53 39 56 0 3 -12 3 -26 0
-16 -3 -38 -21 -57 -48 -17 -24 -33 -44 -36 -44 -3 0 -14 20 -24 44 -13 32
-25 45 -43 49 -13 2 -24 3 -24 2z"/>
<path d="M4005 723 c-55 -13 -104 -101 -90 -164 21 -94 162 -91 206 4 23 51
24 79 4 118 -22 41 -63 56 -120 42z m81 -58 c14 -22 15 -32 5 -65 -12 -41 -52
-80 -81 -80 -54 0 -71 100 -25 145 33 34 79 33 101 0z"/>
<path d="M5263 723 c-12 -2 -36 -20 -53 -39 -26 -30 -30 -42 -30 -93 0 -73 24
-101 89 -101 34 0 49 6 72 29 16 16 29 34 29 40 0 20 -36 11 -60 -14 -13 -14
-31 -25 -40 -25 -45 0 -64 73 -35 129 23 45 73 55 102 22 17 -20 43 -18 43 4
0 32 -65 59 -117 48z"/>
<path d="M5970 713 c-68 -35 -94 -149 -45 -198 48 -49 144 -25 180 45 54 104
-35 204 -135 153z m92 -40 c22 -20 23 -52 2 -97 -23 -48 -57 -65 -92 -45 -21
11 -28 23 -30 55 -6 77 70 132 120 87z"/>
<path d="M6441 717 c-25 -9 -41 -24 -58 -56 -31 -58 -30 -102 3 -140 77 -92
232 26 193 147 -11 33 -52 63 -86 61 -10 0 -33 -5 -52 -12z m87 -39 c33 -33
-4 -141 -52 -154 -72 -18 -100 69 -45 139 22 29 75 37 97 15z"/>
<path d="M6693 716 c-40 -18 -73 -80 -73 -136 0 -59 33 -90 97 -90 71 0 94 16
109 73 l12 48 -51 -3 c-56 -3 -81 -28 -28 -28 37 0 41 -22 9 -44 -31 -22 -64
-20 -89 5 -40 40 -11 127 50 151 19 7 31 4 52 -12 49 -36 76 -23 41 20 -22 27
-86 35 -129 16z"/>
<path d="M6890 725 c0 -1 14 -33 31 -71 26 -57 30 -76 25 -116 -6 -43 -5 -48
13 -48 15 0 21 9 26 40 4 25 27 69 61 116 30 41 54 77 54 78 0 2 -11 1 -25 -2
-15 -2 -38 -22 -57 -48 -17 -24 -35 -44 -38 -44 -4 0 -15 20 -24 44 -12 32
-23 45 -41 49 -14 2 -25 3 -25 2z"/>
<path d="M3256 703 c-6 -19 -46 -204 -46 -211 0 -3 39 -2 87 0 74 4 89 8 105
27 22 29 23 67 2 79 -15 8 -14 12 6 40 22 30 22 32 6 56 -15 24 -23 26 -86 26
-57 0 -70 -3 -74 -17z m122 -25 c7 -7 8 -17 1 -30 -13 -25 -105 -27 -95 -2 3
9 6 22 6 30 0 17 70 20 88 2z m-3 -105 c9 -25 -29 -53 -71 -53 -39 0 -44 6
-37 43 5 25 9 27 53 27 36 0 49 -4 55 -17z"/>
<path d="M3495 698 c-3 -13 -12 -57 -20 -98 -9 -41 -18 -83 -21 -92 -5 -16 4
-18 84 -18 71 0 91 3 96 15 4 12 -7 15 -65 15 -69 0 -71 1 -65 23 3 12 6 28 6
35 0 8 20 12 64 12 55 0 64 3 69 20 5 18 0 20 -55 20 -59 0 -59 0 -56 28 3 26
5 27 71 30 51 2 67 6 67 17 0 12 -17 15 -85 15 -80 0 -85 -1 -90 -22z"/>
<path d="M4186 628 c-9 -51 -20 -103 -23 -115 -4 -18 -1 -23 14 -23 16 0 22
13 37 80 9 44 21 78 27 75 5 -4 9 -12 9 -20 0 -7 12 -41 26 -74 19 -42 32 -61
45 -61 22 0 19 -10 64 213 2 11 -3 17 -15 17 -20 0 -23 -6 -40 -93 -7 -32 -15
-56 -18 -52 -4 4 -19 37 -33 73 -22 54 -31 68 -51 70 -23 3 -25 -2 -42 -90z"/>
<path d="M4445 708 c-6 -22 -45 -199 -45 -209 0 -16 113 -10 149 9 47 23 73
75 68 130 -7 66 -28 82 -104 82 -42 0 -65 -4 -68 -12z m124 -49 c29 -52 -26
-139 -89 -139 -36 0 -35 -6 -8 123 10 48 10 48 46 45 27 -2 40 -10 51 -29z"/>
<path d="M4760 705 c0 -11 11 -15 36 -15 30 0 34 -3 29 -19 -8 -26 -35 -154
-35 -168 0 -7 9 -13 19 -13 15 0 22 11 30 50 6 28 16 73 22 100 10 48 12 50
45 50 24 0 34 5 34 15 0 12 -17 15 -90 15 -73 0 -90 -3 -90 -15z"/>
<path d="M4962 618 c-12 -57 -22 -109 -22 -115 0 -10 25 -13 90 -13 79 0 90 2
90 18 0 15 -8 17 -65 14 -62 -4 -65 -3 -65 20 0 38 13 47 75 50 48 2 60 7 63
21 3 15 -5 17 -57 17 -63 0 -70 6 -55 44 5 12 21 16 70 16 50 0 64 3 64 15 0
12 -16 15 -83 15 l-84 0 -21 -102z"/>
<path d="M5445 708 c-2 -7 -11 -51 -20 -98 -9 -47 -18 -93 -21 -102 -4 -13 0
-18 15 -18 15 0 23 10 31 43 6 23 13 48 15 55 3 7 23 12 51 12 l47 0 -7 -39
c-3 -22 -9 -47 -12 -56 -5 -13 -2 -16 17 -13 21 3 26 13 46 103 27 124 27 125
4 125 -19 0 -23 -6 -35 -63 -6 -26 -9 -28 -54 -25 -26 2 -46 8 -46 13 1 6 5
25 9 43 6 28 4 32 -15 32 -11 0 -22 -6 -25 -12z"/>
<path d="M5687 703 c-3 -10 -13 -54 -22 -98 -9 -44 -19 -88 -21 -97 -4 -13 0
-18 15 -18 22 0 24 6 42 97 6 35 14 61 18 59 3 -2 20 -38 36 -80 24 -60 34
-76 51 -76 18 0 22 11 38 93 9 50 20 102 23 115 4 17 1 22 -15 22 -18 0 -22
-10 -33 -75 -7 -41 -16 -75 -20 -75 -4 0 -20 34 -36 75 -23 62 -31 75 -50 75
-12 0 -24 -8 -26 -17z"/>
<path d="M6190 717 c0 -6 -41 -193 -46 -209 -5 -16 3 -18 80 -18 75 0 86 2 86
18 0 14 -8 16 -51 13 -28 -1 -55 1 -59 5 -5 5 0 45 10 89 24 101 24 105 0 105
-11 0 -20 -1 -20 -3z"/>
</g>
</svg>
